# xmcd CD database file
#
# Track frame offsets:
#	150
#	8883
#	19620
#	48018
#	72617
#	93189
#	121325
#	141197
#	155870
#
# Disc length: 2544 seconds
#
# Revision: 0
# Processed by: cddbd v1.5.1PL0 Copyright (c) Steve Scherf et al.
# Submitted via: CDex 1.51
#
DISCID=7209ee09
DTITLE=Shankar - M.R.C.S.
DYEAR=1991
DGENRE=Jazz
TTITLE0=Adagio
TTITLE1=March
TTITLE2=All I Care
TTITLE3=Reasons
TTITLE4=Back Again
TTITLE5=Al's Hallucinations
TTITLE6=Sally
TTITLE7=White Buffalo
TTITLE8=Ocean Waves
EXTD=YEAR: 1991
EXTT0=
EXTT1=
EXTT2=
EXTT3=
EXTT4=
EXTT5=
EXTT6=
EXTT7=
EXTT8=
PLAYORDER=
